PathFileType	4	(X/Y/Z)	/home/abdul/Desktop/myosuite/custom_workspace/IK/output/S4_12_2.trc
DataRate	CameraRate	NumFrames	NumMarkers	Units	OrigDataRate	OrigDataStartFrame	OrigNumFrames
200.0	200.0	33	3	mm	200.0	528	1054
Frame#	Time	V_Shoulder			V_Elbow			V_Wrist		
		X1	Y1	Z1	X2	Y2	Z2	X3	Y3	Z3

528	2.635	-85.6816589044692	577.4678632964107	274.5922409681039	-141.39588890891454	437.3885575592505	22.699436395371315	-77.98935432173728	308.96654498177816	182.94792453177524
529	2.64	-85.68666378834575	577.4144029161541	274.5961706383518	-141.51560113995745	437.13950243567797	22.76641338152107	-78.12047306722097	307.2053375448421	181.92127801803565
530	2.645	-85.69125223072895	577.3577274262715	274.59971417309544	-141.6294106063336	436.88217288992587	22.83307480941356	-78.24403346661406	305.43215483862986	180.87117806578578
531	2.65	-85.69543314977284	577.2977626589427	274.6028335945228	-141.73717162830647	436.61683538547953	22.899155397859285	-78.35992063287331	303.64828018514214	179.7976525575329
532	2.655	-85.69921495905386	577.2344369799665	274.60549132099345	-141.83874774977448	436.3437732793739	22.964386792567403	-78.46803637393492	301.8550153434951	178.70076000385637
533	2.66	-85.7026055552612	577.1676815578456	274.6076502722524	-141.93401213708444	436.06328635556355	23.0284983133539	-78.56829952350293	300.05367833064383	177.58059036416296
534	2.665	-85.70561230701509	577.0974306282712	274.60927397520913	-142.02284795905945	435.77569030615643	23.091217721130313	-78.66064621428959	298.2456011921871	176.43726581012044
535	2.67	-85.7082420448787	577.0236217530686	274.6103266699231	-142.1051487468809	435.4813161616388	23.15227200210986	-78.74503009303572	296.43212772839854	175.27094142760006
536	2.675	-85.71050105262763	576.9461960726891	274.61077341543336	-142.1808187324881	435.1805096713932	23.21138816655729	-78.82142247692465	294.61461118074664	174.08180585307332
537	2.68	-85.71239505984077	576.865098551339	274.61058019506396	-142.24977316419154	434.87363063598593	23.268294059308186	-78.88981245128303	292.7944118842728	172.87008184054355
538	2.685	-85.71392923587472	576.7802782138673	274.60971402083754	-142.31193859822957	434.5610521928626	23.32271917919283	-78.95020690873775	290.97289489129594	171.63602675525294
539	2.69	-85.71510818528185	576.691688373549	274.6081430366242	-142.3672531650393	434.2431600572567	23.37439550442039	-79.0026305302643	289.1514275720025	170.3799329905807
540	2.695	-85.71593594473062	576.5992868499378	274.6058366196564	-142.41566680905868	433.9203517202702	23.42305832091145	-79.04712570881935	287.33137719756127	169.10212830474865
541	2.7	-85.71641598148317	576.5030361759846	274.60276548004015	-142.45714150092698	433.5930356062356	23.468447050511163	-79.0837524164963	285.5141085114785	167.80297607416819
542	2.705	-85.71655119348331	576.4029037936604	274.598901757898	-142.49165142100833	433.26163019161515	23.510306075972366	-79.11258801637467	283.70098129497364	166.4828754605014
543	2.71	-85.7163439111036	576.2988622373563	274.59421911778026	-142.51918311322513	432.9265630878307	23.548385559568416	-79.13372702045376	281.89334793221377	165.1422614887658
544	2.715	-85.71579590059719	576.1908893043734	274.5886928399918	-142.53973560825693	432.5882700905483	23.582442252179376	-79.14728079526307	280.09255098129483	163.78160503408634
545	2.72	-85.7149083692946	576.0789682118658	274.5822999084839	-142.55332051523442	432.24719419807	23.612240289693432	-79.15337721692917	278.2999207568989	162.40141271499016
546	2.725	-85.71368197258307	575.9630877396365	274.57501909497324	-142.55996208113794	431.90378460159843	23.63755197357797	-79.15216027764771	276.5167729305874	161.00222669144523
547	2.73	-85.71211682269843	575.8432423582458	274.5668310389577	-142.55969721719728	431.55849565025505	23.658158532502206	-79.14378964565988	274.7444061547096	159.584624366165
548	2.735	-85.7102124993557	575.7194323419359	274.55771832330953	-142.55257549167996	431.2117857938341	23.673850861935623	-79.12844018096652	272.98409971591815	158.1492179880331
549	2.74	-85.7079680622387	575.5916638659363	274.54766554514293	-142.53865908855389	430.86411650636705	23.68443023870425	-79.1063014091262	271.2371112242758	156.6966541568458
550	2.745	-85.70538206536166	575.459949087761	274.5366593816605	-142.51802273161258	430.5159511936637	23.68970900755939	-79.07757695557983	269.5046743439231	155.22761322892114
551	2.75	-85.70245257331068	575.3243062121769	274.5246886507039	-142.49075357376034	430.1677540880714	23.68951123690168	-79.04248394302138	267.78799657124296	153.74280862348138
552	2.755	-85.6991771793651	575.184759539575	274.5117443657459	-142.45695105126666	429.8199891337646	23.683673340906328	-79.00125235439346	266.0882570664075	152.2429860300802
553	2.76	-85.69555302549203	575.0413394975358	274.4978197850808	-142.41672670291848	429.47311886593786	23.67204466541323	-78.95412436412794	264.40660454412915	150.72892251771
554	2.765	-85.69157682420042	574.8940826554475	274.48291045498706	-142.37020395412014	429.1276032873252	23.654488035078177	-78.90135364027793	262.744155229346	149.20142554659247
555	2.77	-85.68724488223283	574.7430317220916	274.4670142466546	-142.317517866117	428.78389874551164	23.630880259427457	-78.84320462019593	261.1019908834698	147.66133188402
556	2.775	-85.68255312606574	574.5882355261751	274.45013138669157	-142.2588148506471	428.4424568145339	23.601112595618083	-78.77995176240898	259.4811569066919	146.10950642597825
557	2.78	-85.67749712918196	574.4297489798518	274.43226448104224	-142.194252350458	428.1037231842852	23.565091165878	-78.71187877732287	257.88266052169377	144.54684092663638
558	2.785	-85.6720721410693	574.2676330253362	274.41341853217403	-142.1239984862586	427.76813656125177	23.522737327785	-78.63927783935819	256.3074690439311	142.97425263814273
559	2.79	-85.6662731178936	574.1019545647765	274.39360094940986	-142.0482316708115	427.43612758410575	23.47398799573796	-78.56244878307992	254.75650824346388	141.39268286350435
560	2.795	-85.66009475478468	573.9327863736127	274.3728215523077	-141.96714019100634	427.108117757664	23.418795912178926	-78.48169828583349	253.23066080307845	139.80309542566218
